<svg width="14" height="10" viewBox="0 0 14 10" fill="none" xmlns="http://www.w3.org/2000/svg">
<path d="M7.96983 8.46997C7.89614 8.53863 7.83704 8.62143 7.79605 8.71343C7.75506 8.80543 7.73301 8.90474 7.73124 9.00545C7.72946 9.10615 7.74799 9.20618 7.78571 9.29957C7.82343 9.39295 7.87957 9.47779 7.95079 9.54901C8.02201 9.62023 8.10684 9.67637 8.20023 9.71409C8.29362 9.75181 8.39365 9.77034 8.49435 9.76856C8.59505 9.76678 8.69437 9.74474 8.78637 9.70375C8.87837 9.66276 8.96117 9.60366 9.02983 9.52997L13.0298 5.52997C13.0996 5.46047 13.155 5.37788 13.1928 5.28692C13.2306 5.19597 13.25 5.09846 13.25 4.99997C13.25 4.90148 13.2306 4.80396 13.1928 4.71301C13.155 4.62206 13.0996 4.53947 13.0298 4.46997L9.02983 0.469968C8.96117 0.396281 8.87837 0.337179 8.78637 0.296187C8.69437 0.255196 8.59505 0.233154 8.49435 0.231378C8.39365 0.229601 8.29362 0.248125 8.20023 0.285846C8.10684 0.323566 8.02201 0.379712 7.95079 0.450931C7.87957 0.522149 7.82343 0.606983 7.78571 0.700372C7.74799 0.79376 7.72946 0.893787 7.73124 0.994491C7.73301 1.09519 7.75506 1.19451 7.79605 1.28651C7.83704 1.37851 7.89614 1.46131 7.96983 1.52997L10.6898 4.24997L0.999829 4.24997C0.800917 4.24997 0.610151 4.32899 0.469499 4.46964C0.328846 4.61029 0.249829 4.80106 0.249829 4.99997C0.249829 5.19888 0.328846 5.38965 0.469499 5.5303C0.610151 5.67095 0.800917 5.74997 0.999829 5.74997L10.6898 5.74997L7.96983 8.46997Z" fill="#E8BF00"/>
</svg>
