<svg width="94" height="94" viewBox="0 0 94 94" fill="none" xmlns="http://www.w3.org/2000/svg">
<path d="M5.5813 47C5.5813 52.4392 6.65263 57.8251 8.73411 62.8503C10.8156 67.8754 13.8665 72.4414 17.7126 76.2875C21.5587 80.1335 26.1246 83.1844 31.1498 85.2659C36.1749 87.3474 41.5609 88.4187 47 88.4187C52.4392 88.4187 57.8252 87.3474 62.8503 85.2659C67.8755 83.1844 72.4414 80.1335 76.2875 76.2875C80.1336 72.4414 83.1845 67.8754 85.266 62.8503C87.3475 57.8251 88.4188 52.4392 88.4188 47C88.4188 41.5608 87.3475 36.1749 85.266 31.1497C83.1845 26.1246 80.1336 21.5586 76.2875 17.7125C72.4414 13.8664 67.8755 10.8155 62.8503 8.73405C57.8252 6.65257 52.4392 5.58124 47 5.58124C41.5609 5.58124 36.1749 6.65257 31.1498 8.73405C26.1246 10.8155 21.5587 13.8664 17.7126 17.7125C13.8665 21.5586 10.8156 26.1246 8.73411 31.1497C6.65263 36.1749 5.5813 41.5608 5.5813 47Z" stroke="#E8BF00" stroke-width="8" stroke-linecap="round" stroke-linejoin="round"/>
<path d="M37.7959 47C37.7959 49.4411 38.7656 51.7822 40.4917 53.5083C42.2178 55.2344 44.5589 56.2042 47 56.2042M37.7959 47C37.7959 44.5589 38.7656 42.2178 40.4917 40.4917C42.2178 38.7656 44.5589 37.7958 47 37.7958C49.4411 37.7958 51.7823 38.7656 53.5084 40.4917C55.2345 42.2178 56.2042 44.5589 56.2042 47M37.7959 47L6.73181 37.7958M47 56.2042C49.4411 56.2042 51.7823 55.2344 53.5084 53.5083C55.2345 51.7822 56.2042 49.4411 56.2042 47M47 56.2042V88.4188M56.2042 47L87.2683 37.7958" stroke="#E8BF00" stroke-width="8" stroke-linecap="round" stroke-linejoin="round"/>
</svg>
