<svg width="104" height="94" viewBox="0 0 104 94" fill="none" xmlns="http://www.w3.org/2000/svg">
<path d="M59.4286 74.4167H52V66.5833C51.997 63.468 50.8221 60.4811 48.7331 58.2783C46.644 56.0754 43.8115 54.8364 40.8571 54.8333H26C23.0456 54.8364 20.2131 56.0754 18.1241 58.2783C16.035 60.4811 14.8601 63.468 14.8571 66.5833V74.4167H7.42857V66.5833C7.43447 61.3914 9.39299 56.4139 12.8745 52.7427C16.3561 49.0715 21.0764 47.0062 26 47H40.8571C45.7808 47.0062 50.5011 49.0715 53.9826 52.7427C57.4642 56.4139 59.4227 61.3914 59.4286 66.5833V74.4167ZM33.4286 7.83333C35.6324 7.83333 37.7868 8.52246 39.6192 9.81357C41.4516 11.1047 42.8799 12.9398 43.7232 15.0868C44.5666 17.2338 44.7873 19.5964 44.3573 21.8756C43.9274 24.1549 42.8661 26.2486 41.3078 27.8918C39.7494 29.5351 37.7639 30.6542 35.6024 31.1076C33.4409 31.5609 31.2005 31.3282 29.1644 30.4389C27.1283 29.5496 25.388 28.0436 24.1636 26.1113C22.9392 24.179 22.2857 21.9073 22.2857 19.5833C22.2857 16.467 23.4597 13.4784 25.5494 11.2748C27.6391 9.07128 30.4733 7.83333 33.4286 7.83333ZM33.4286 0C29.7555 0 26.1649 1.14854 23.1108 3.30039C20.0568 5.45223 17.6764 8.51073 16.2708 12.0891C14.8652 15.6675 14.4974 19.6051 15.214 23.4039C15.9306 27.2026 17.6993 30.6921 20.2966 33.4308C22.8938 36.1696 26.203 38.0348 29.8055 38.7904C33.408 39.546 37.1421 39.1582 40.5355 37.676C43.929 36.1938 46.8295 33.6837 48.8701 30.4633C50.9108 27.2428 52 23.4566 52 19.5833C52 14.3895 50.0434 9.40841 46.5606 5.73583C43.0777 2.06324 38.354 0 33.4286 0ZM0 86.1667H104V94H0V86.1667ZM93.9826 15.6667C92.6611 15.6664 91.3531 15.9456 90.1358 16.4878C88.9185 17.0301 87.8167 17.8243 86.8957 18.8235L85.4286 20.4058L83.9614 18.8196C83.0406 17.82 81.9389 17.0253 80.7216 16.4827C79.5043 15.94 78.1962 15.6604 76.8746 15.6604C75.553 15.6604 74.2448 15.94 73.0275 16.4827C71.8102 17.0253 70.7086 17.82 69.7877 18.8196C67.9088 20.8652 66.8582 23.6014 66.8582 26.4493C66.8582 29.2971 67.9088 32.0333 69.7877 34.0789L85.4286 50.9167L101.066 34.0828C102.945 32.0372 103.995 29.301 103.995 26.4532C103.995 23.6053 102.945 20.8692 101.066 18.8235C100.146 17.8252 99.045 17.0316 97.8291 16.4894C96.6131 15.9472 95.3065 15.6674 93.9863 15.6667" fill="#E8BF00"/>
</svg>
