<svg width="94" height="94" viewBox="0 0 94 94" fill="none" xmlns="http://www.w3.org/2000/svg">
<g clip-path="url(#clip0_14_2)">
<path d="M73.2976 12.2264C73.2976 19.1917 67.5122 24.6645 60.1488 24.6645C52.7855 24.6645 47 19.1917 47 12.2264C47 5.26108 52.7855 -0.21167 60.1488 -0.21167C67.5122 -0.21167 73.2976 5.26108 73.2976 12.2264ZM62.7786 29.6397H58.571C47.526 29.6397 37.0069 23.6694 31.7474 14.2165C31.2214 13.719 30.6955 13.2214 30.6955 12.7239L21.2284 16.7041C23.8581 23.6694 32.2734 32.6248 44.3703 37.1025L34.9031 61.9786L14.391 56.5059L-0.335693 83.8696L10.1834 86.3572L19.6505 68.4464L43.3184 74.4167C48.5779 75.4118 53.8374 72.9241 55.9412 68.4464L68.0381 36.605C69.09 33.1223 66.4603 29.6397 62.7786 29.6397ZM83.2907 24.6645L65.4083 71.4316C62.2526 79.3919 54.3633 84.3672 45.9481 84.3672C44.3703 84.3672 42.2664 84.3671 40.6886 83.8696L25.436 79.8895L20.7024 88.8449L31.2214 91.3325L38.5848 93.3226C41.2145 93.8201 43.8443 94.3176 46.4741 94.3176C59.6229 94.3176 71.1938 86.8548 75.9274 74.9142L94.3357 24.6645H83.2907Z" fill="#E8BF00"/>
</g>
<defs>
<clipPath id="clip0_14_2">
<rect width="94" height="94" fill="white"/>
</clipPath>
</defs>
</svg>
