<svg width="32" height="32" viewBox="0 0 32 32" fill="none" xmlns="http://www.w3.org/2000/svg">
<path d="M28.25 0.25H3.75C2.82174 0.25 1.9315 0.618749 1.27513 1.27513C0.618749 1.9315 0.25 2.82174 0.25 3.75V28.25C0.25 29.1783 0.618749 30.0685 1.27513 30.7249C1.9315 31.3813 2.82174 31.75 3.75 31.75H28.25C29.1783 31.75 30.0685 31.3813 30.7249 30.7249C31.3813 30.0685 31.75 29.1783 31.75 28.25V3.75C31.75 2.82174 31.3813 1.9315 30.7249 1.27513C30.0685 0.618749 29.1783 0.25 28.25 0.25ZM28.25 3.75V28.25H3.75V3.75H28.25ZM12.5 24.75L5.5 17.75L7.9675 15.265L12.5 19.7975L24.0325 8.265L26.5 10.75" fill="#E8BF00"/>
</svg>
