<svg width="18" height="18" viewBox="0 0 18 18" fill="none" xmlns="http://www.w3.org/2000/svg">
<path d="M16.7932 3.24038C16.9305 3.10783 17.0401 2.94927 17.1155 2.77392C17.1909 2.59858 17.2307 2.40997 17.2324 2.2191C17.2342 2.02823 17.1979 1.83892 17.1257 1.66223C17.0535 1.48553 16.9468 1.32498 16.8119 1.18995C16.677 1.05491 16.5166 0.948099 16.34 0.875737C16.1633 0.803375 15.9741 0.766915 15.7832 0.768483C15.5923 0.770051 15.4037 0.809616 15.2283 0.88487C15.0528 0.960124 14.8942 1.06956 14.7615 1.20679L9 6.96638L3.24041 1.20679C3.10881 1.06556 2.95011 0.95228 2.77378 0.873712C2.59744 0.795144 2.40709 0.752897 2.21408 0.749491C2.02107 0.746086 1.82934 0.781592 1.65035 0.85389C1.47136 0.926189 1.30876 1.0338 1.17226 1.1703C1.03575 1.3068 0.928142 1.4694 0.855844 1.6484C0.783545 1.82739 0.748039 2.01911 0.751444 2.21213C0.75485 2.40514 0.797097 2.59549 0.875665 2.77182C0.954233 2.94816 1.06751 3.10686 1.20875 3.23846L6.96449 8.99996L1.20491 14.7595C0.950992 15.032 0.812755 15.3925 0.819326 15.7649C0.825897 16.1373 0.976762 16.4926 1.24014 16.756C1.50351 17.0194 1.85883 17.1702 2.23124 17.1768C2.60365 17.1834 2.96408 17.0451 3.23658 16.7912L9 11.0316L14.7596 16.7931C15.0321 17.047 15.3925 17.1853 15.7649 17.1787C16.1373 17.1721 16.4926 17.0213 16.756 16.7579C17.0194 16.4945 17.1703 16.1392 17.1768 15.7668C17.1834 15.3944 17.0452 15.034 16.7912 14.7615L11.0355 8.99996L16.7932 3.24038Z" fill="#322A1E"/>
</svg>
