<svg width="18" height="17" viewBox="0 0 18 17" fill="none" xmlns="http://www.w3.org/2000/svg">
<path d="M16.7932 2.74038C16.9305 2.60783 17.0401 2.44927 17.1155 2.27392C17.1909 2.09858 17.2307 1.90997 17.2324 1.7191C17.2342 1.52823 17.1979 1.33892 17.1257 1.16223C17.0535 0.985531 16.9468 0.824981 16.8119 0.689947C16.677 0.554913 16.5166 0.448099 16.34 0.375737C16.1633 0.303375 15.9741 0.266915 15.7832 0.268483C15.5923 0.270051 15.4037 0.309616 15.2283 0.38487C15.0528 0.460124 14.8942 0.56956 14.7615 0.706792L9 6.46638L3.24041 0.706792C3.10881 0.565559 2.95011 0.45228 2.77378 0.373712C2.59744 0.295144 2.40709 0.252897 2.21408 0.249491C2.02107 0.246086 1.82934 0.281592 1.65035 0.35389C1.47136 0.426189 1.30876 0.533799 1.17226 0.670302C1.03575 0.806805 0.928142 0.969402 0.855844 1.1484C0.783545 1.32739 0.748039 1.51911 0.751444 1.71213C0.75485 1.90514 0.797097 2.09549 0.875665 2.27182C0.954233 2.44816 1.06751 2.60686 1.20875 2.73846L6.96449 8.49996L1.20491 14.2595C0.950992 14.532 0.812755 14.8925 0.819326 15.2649C0.825897 15.6373 0.976762 15.9926 1.24014 16.256C1.50351 16.5194 1.85883 16.6702 2.23124 16.6768C2.60365 16.6834 2.96408 16.5451 3.23658 16.2912L9 10.5316L14.7596 16.2931C15.0321 16.547 15.3925 16.6853 15.7649 16.6787C16.1373 16.6721 16.4926 16.5213 16.756 16.2579C17.0194 15.9945 17.1703 15.6392 17.1768 15.2668C17.1834 14.8944 17.0452 14.534 16.7912 14.2615L11.0355 8.49996L16.7932 2.74038Z" fill="#E8BF00"/>
</svg>
