<svg width="42" height="42" viewBox="0 0 42 42" fill="none" xmlns="http://www.w3.org/2000/svg">
<rect width="42" height="42" rx="21" fill="white"/>
<path fill-rule="evenodd" clip-rule="evenodd" d="M28.6237 6.82446C23.6027 5.72518 18.3958 5.72518 13.3748 6.82446L12.8338 6.94169C11.4215 7.25096 10.1243 7.93766 9.08646 8.9255C8.04858 9.91333 7.31062 11.1636 6.95455 12.5375C5.68182 17.4495 5.68182 22.5951 6.95455 27.5071C7.29412 28.8174 7.98136 30.0164 8.9466 30.9827C9.91185 31.9489 11.1208 32.648 12.4508 33.0091L13.1929 37.3482C13.2166 37.486 13.2776 37.6151 13.3695 37.7219C13.4614 37.8288 13.5808 37.9096 13.7155 37.9559C13.8501 38.0022 13.9949 38.0123 14.1348 37.9851C14.2747 37.958 14.4047 37.8946 14.5111 37.8015L18.8695 33.9829C22.1413 34.1785 25.4248 33.9222 28.6237 33.2217L29.1663 33.1045C30.5786 32.7952 31.8758 32.1085 32.9136 31.1207C33.9515 30.1328 34.6895 28.8825 35.0456 27.5087C36.3181 22.5966 36.3181 17.4511 35.0456 12.5391C34.6894 11.165 33.9511 9.91456 32.913 8.9267C31.8748 7.93885 30.5773 7.25227 29.1647 6.94325L28.6237 6.82446ZM14.7218 12.4109C14.4252 12.3686 14.1227 12.4271 13.8648 12.5766H13.8424C13.244 12.9205 12.7046 13.3534 12.245 13.863C11.8619 14.296 11.6545 14.7336 11.6002 15.1557C11.5683 15.4058 11.5906 15.659 11.6656 15.8981L11.6944 15.9138C12.1253 17.1533 12.687 18.3459 13.3733 19.4682C14.2581 21.0445 15.347 22.5024 16.6129 23.8057L16.6512 23.8589L16.7119 23.9026L16.7486 23.9449L16.7933 23.9824C18.1286 25.226 19.6206 26.2976 21.233 27.171C23.0763 28.1542 24.195 28.6185 24.8669 28.8123V28.8217C25.0632 28.8811 25.2419 28.9076 25.4223 28.9076C25.9945 28.8662 26.5361 28.6384 26.9607 28.2605C27.4794 27.8103 27.9183 27.2805 28.2598 26.6912V26.6802C28.5806 26.0863 28.472 25.5267 28.0092 25.1469C27.0796 24.3513 26.0744 23.6447 25.0073 23.0367C24.2924 22.6569 23.5663 22.8866 23.2726 23.2712L22.6454 24.0464C22.323 24.431 21.7389 24.3778 21.7389 24.3778L21.723 24.3872C17.3646 23.2977 16.2012 18.9758 16.2012 18.9758C16.2012 18.9758 16.1469 18.3881 16.5507 18.088L17.3359 17.469C17.7125 17.1689 17.9742 16.4593 17.5705 15.759C16.9538 14.7129 16.2338 13.7287 15.4208 12.8204C15.2435 12.6067 14.9948 12.4611 14.7186 12.4093L14.7218 12.4109ZM22.0853 10.5321C21.8736 10.5321 21.6707 10.6144 21.521 10.761C21.3714 10.9076 21.2873 11.1063 21.2873 11.3136C21.2873 11.5209 21.3714 11.7197 21.521 11.8663C21.6707 12.0128 21.8736 12.0952 22.0853 12.0952C24.1041 12.0952 25.7798 12.7407 27.106 13.9787C27.7874 14.6555 28.3188 15.4573 28.6667 16.3358C29.0162 17.2158 29.1758 18.1552 29.1343 19.0962C29.1299 19.1988 29.1462 19.3013 29.1823 19.3978C29.2183 19.4942 29.2734 19.5828 29.3444 19.6584C29.4877 19.8112 29.6871 19.9018 29.8988 19.9105C30.1104 19.9193 30.3169 19.8453 30.4728 19.7048C30.6288 19.5644 30.7214 19.3691 30.7302 19.1618C30.7797 18.0043 30.5836 16.8494 30.1541 15.77C29.7228 14.6854 29.0688 13.6991 28.2327 12.872L28.2167 12.8564C26.5713 11.3167 24.4887 10.5321 22.0853 10.5321ZM22.031 13.1018C21.8194 13.1018 21.6164 13.1841 21.4668 13.3307C21.3171 13.4773 21.233 13.676 21.233 13.8833C21.233 14.0906 21.3171 14.2894 21.4668 14.436C21.6164 14.5825 21.8194 14.6649 22.031 14.6649H22.0581C23.5136 14.7665 24.5733 15.2416 25.3154 16.0216C26.0766 16.825 26.4708 17.8238 26.4405 19.0587C26.4356 19.2659 26.515 19.4666 26.6612 19.6166C26.8074 19.7665 27.0084 19.8534 27.2201 19.8582C27.4317 19.863 27.6366 19.7852 27.7897 19.642C27.9428 19.4988 28.0315 19.3019 28.0364 19.0946C28.0747 17.4737 27.5416 16.0748 26.4851 14.9587V14.9556C25.4047 13.8208 23.9221 13.2206 22.1379 13.1033L22.1108 13.1002L22.031 13.1018ZM22.0007 15.7199C21.8939 15.7107 21.7863 15.7226 21.6843 15.755C21.5824 15.7874 21.4881 15.8396 21.4072 15.9085C21.3262 15.9774 21.2603 16.0615 21.2133 16.1559C21.1663 16.2502 21.1393 16.3529 21.1337 16.4578C21.1281 16.5626 21.1441 16.6675 21.1809 16.7662C21.2176 16.8648 21.2742 16.9552 21.3474 17.0319C21.4206 17.1087 21.5088 17.1702 21.6068 17.2128C21.7048 17.2554 21.8105 17.2782 21.9177 17.2799C22.5848 17.3143 23.0109 17.5112 23.279 17.7754C23.5487 18.0411 23.7498 18.4678 23.7865 19.1353C23.7885 19.2401 23.812 19.3436 23.8557 19.4393C23.8993 19.5351 23.9622 19.6213 24.0406 19.6928C24.119 19.7643 24.2113 19.8195 24.312 19.8553C24.4127 19.8911 24.5197 19.9067 24.6266 19.9012C24.7336 19.8956 24.8383 19.869 24.9345 19.823C25.0308 19.7769 25.1165 19.7124 25.1868 19.6332C25.257 19.554 25.3102 19.4617 25.3433 19.362C25.3763 19.2622 25.3886 19.1569 25.3792 19.0524C25.3281 18.1146 25.0281 17.2861 24.4137 16.6765C23.7961 16.0669 22.955 15.77 22.0007 15.7199Z" fill="#9747FF"/>
</svg>
