<svg width="42" height="42" viewBox="0 0 42 42" fill="none" xmlns="http://www.w3.org/2000/svg">
<g clip-path="url(#clip0_33_22)">
<path d="M0.896279 20.7486C0.895295 24.2775 1.82454 27.7231 3.5915 30.7601L0.727295 41.1367L11.4294 38.3523C14.3895 39.9513 17.706 40.7891 21.0763 40.7893H21.0852C32.2111 40.7893 41.2678 31.806 41.2726 20.7644C41.2747 15.414 39.1767 10.3828 35.3648 6.59757C31.5537 2.81269 26.4849 0.727173 21.0843 0.724731C9.95712 0.724731 0.901037 9.70752 0.896443 20.7486" fill="url(#paint0_linear_33_22)"/>
<path d="M0.175547 20.7421C0.174398 24.3979 1.13695 27.9668 2.96691 31.1126L0 41.8611L11.0859 38.977C14.1404 40.6295 17.5795 41.5007 21.0789 41.502H21.0879C32.613 41.502 41.9951 32.1956 42 20.7587C42.002 15.216 39.8285 10.004 35.8805 6.08316C31.932 2.16284 26.682 0.00227907 21.0879 0C9.56091 0 0.180141 9.30512 0.175547 20.7421ZM6.77759 30.5708L6.36366 29.9188C4.62361 27.1735 3.70519 24.001 3.7065 20.7434C3.71011 11.2373 11.507 3.50326 21.0945 3.50326C25.7375 3.50521 30.1009 5.30112 33.3828 8.55954C36.6645 11.8183 38.4704 16.1501 38.4692 20.7574C38.4649 30.2636 30.6679 37.9986 21.0879 37.9986H21.081C17.9617 37.997 14.9025 37.1658 12.2345 35.595L11.5995 35.2214L5.02097 36.9328L6.77759 30.5708Z" fill="url(#paint1_linear_33_22)"/>
<path d="M15.8612 12.0706C15.4698 11.2073 15.0578 11.1899 14.6855 11.1748C14.3807 11.1618 14.0322 11.1627 13.6841 11.1627C13.3356 11.1627 12.7695 11.2928 12.2909 11.8113C11.8118 12.3303 10.4619 13.5844 10.4619 16.1352C10.4619 18.6861 12.3344 21.1512 12.5954 21.4975C12.8567 21.8431 16.2102 27.2452 21.5212 29.3233C25.9351 31.0504 26.8334 30.7069 27.7913 30.6203C28.7495 30.534 30.8829 29.3665 31.3182 28.1558C31.7538 26.9453 31.7538 25.9077 31.6232 25.6908C31.4926 25.4748 31.1441 25.3451 30.6216 25.0859C30.0989 24.8266 27.53 23.5723 27.0511 23.3992C26.572 23.2263 26.2237 23.1401 25.8753 23.6592C25.5268 24.1775 24.5262 25.3451 24.2212 25.6908C23.9165 26.0374 23.6115 26.0806 23.0891 25.8212C22.5663 25.5611 20.8835 25.0143 18.887 23.2482C17.3337 21.8739 16.285 20.1768 15.9802 19.6576C15.6753 19.1393 15.9475 18.8583 16.2095 18.6C16.4443 18.3677 16.7322 17.9946 16.9937 17.6919C17.2543 17.3892 17.3412 17.1731 17.5155 16.8274C17.6899 16.4813 17.6026 16.1785 17.4721 15.9192C17.3412 15.6598 16.3258 13.0957 15.8612 12.0706Z" fill="white"/>
</g>
<defs>
<linearGradient id="paint0_linear_33_22" x1="2027.99" y1="4041.92" x2="2027.99" y2="0.724731" gradientUnits="userSpaceOnUse">
<stop stop-color="#1FAF38"/>
<stop offset="1" stop-color="#60D669"/>
</linearGradient>
<linearGradient id="paint1_linear_33_22" x1="2100" y1="4186.11" x2="2100" y2="0" gradientUnits="userSpaceOnUse">
<stop stop-color="#F9F9F9"/>
<stop offset="1" stop-color="white"/>
</linearGradient>
<clipPath id="clip0_33_22">
<rect width="42" height="42" fill="white"/>
</clipPath>
</defs>
</svg>
